<!DOCTYPE svg PUBLIC "-//W3C//DTD SVG 1.1//EN"
    "http://www.w3.org/Graphics/SVG/1.1/DTD/svg11.dtd" >
<svg contentScriptType="text/ecmascript" width="800px"
     xmlns:xlink="http://www.w3.org/1999/xlink" zoomAndPan="magnify"
     style="height: 600px;" contentStyleType="text/css" id="chart_svg"
     height="600px" preserveAspectRatio="xMidYMid meet"
     xmlns="http://www.w3.org/2000/svg" version="1.0">
    <defs>
        <g>
            <g>
                <clipPath id="clip-1">
                    <rect x="43.296875" width="752.703125" y="53" height="507"/>
                </clipPath>
            </g>
        </g>
    </defs>
    <g>
        <g>
            <rect fill="rgb(255,255,255)" x="0" width="800" y="0" height="600"/>
            <rect fill="rgb(255,255,255)" x="43.296875" width="752.703125"
                  y="53" height="507"/>
            <line transform="matrix(1.000,0.000,0.000,1.000,0.000,0.000)"
                  x1="78.000" x2="78.000" y1="53.000" y2="560.000"
                  style="stroke-width: 1; stroke-linecap: round; stroke-linejoin: round; "
                  stroke="rgb(230,230,230)"/>
            <line transform="matrix(1.000,0.000,0.000,1.000,0.000,0.000)"
                  x1="78.342" x2="78.342" y1="560.000" y2="562.000"
                  style="stroke-width: 0.5; stroke-linecap: round; stroke-linejoin: round; "
                  stroke="rgb(100,100,100)"/>
            <text x="78.342" fill="rgb(0,0,0)" y="575.000"
                  style="font-family: sans-serif; font-weight: normal; font-style: normal; font-size: 11px"
                  transform="matrix(1.000,0.000,0.000,1.000,0.000,0.000)"
                  text-anchor="middle">
                -1.2
            </text>
            <line transform="matrix(1.000,0.000,0.000,1.000,0.000,0.000)"
                  x1="120.000" x2="120.000" y1="53.000" y2="560.000"
                  style="stroke-width: 1; stroke-linecap: round; stroke-linejoin: round; "
                  stroke="rgb(230,230,230)"/>
            <line transform="matrix(1.000,0.000,0.000,1.000,0.000,0.000)"
                  x1="120.183" x2="120.183" y1="560.000" y2="562.000"
                  style="stroke-width: 0.5; stroke-linecap: round; stroke-linejoin: round; "
                  stroke="rgb(100,100,100)"/>
            <text x="120.183" fill="rgb(0,0,0)" y="575.000"
                  style="font-family: sans-serif; font-weight: normal; font-style: normal; font-size: 11px"
                  transform="matrix(1.000,0.000,0.000,1.000,0.000,0.000)"
                  text-anchor="middle">
                -1.0
            </text>
            <line transform="matrix(1.000,0.000,0.000,1.000,0.000,0.000)"
                  x1="162.000" x2="162.000" y1="53.000" y2="560.000"
                  style="stroke-width: 1; stroke-linecap: round; stroke-linejoin: round; "
                  stroke="rgb(230,230,230)"/>
            <line transform="matrix(1.000,0.000,0.000,1.000,0.000,0.000)"
                  x1="162.024" x2="162.024" y1="560.000" y2="562.000"
                  style="stroke-width: 0.5; stroke-linecap: round; stroke-linejoin: round; "
                  stroke="rgb(100,100,100)"/>
            <text x="162.024" fill="rgb(0,0,0)" y="575.000"
                  style="font-family: sans-serif; font-weight: normal; font-style: normal; font-size: 11px"
                  transform="matrix(1.000,0.000,0.000,1.000,0.000,0.000)"
                  text-anchor="middle">
                -0.8
            </text>
            <line transform="matrix(1.000,0.000,0.000,1.000,0.000,0.000)"
                  x1="204.000" x2="204.000" y1="53.000" y2="560.000"
                  style="stroke-width: 1; stroke-linecap: round; stroke-linejoin: round; "
                  stroke="rgb(230,230,230)"/>
            <line transform="matrix(1.000,0.000,0.000,1.000,0.000,0.000)"
                  x1="203.865" x2="203.865" y1="560.000" y2="562.000"
                  style="stroke-width: 0.5; stroke-linecap: round; stroke-linejoin: round; "
                  stroke="rgb(100,100,100)"/>
            <text x="203.865" fill="rgb(0,0,0)" y="575.000"
                  style="font-family: sans-serif; font-weight: normal; font-style: normal; font-size: 11px"
                  transform="matrix(1.000,0.000,0.000,1.000,0.000,0.000)"
                  text-anchor="middle">
                -0.6
            </text>
            <line transform="matrix(1.000,0.000,0.000,1.000,0.000,0.000)"
                  x1="246.000" x2="246.000" y1="53.000" y2="560.000"
                  style="stroke-width: 1; stroke-linecap: round; stroke-linejoin: round; "
                  stroke="rgb(230,230,230)"/>
            <line transform="matrix(1.000,0.000,0.000,1.000,0.000,0.000)"
                  x1="245.706" x2="245.706" y1="560.000" y2="562.000"
                  style="stroke-width: 0.5; stroke-linecap: round; stroke-linejoin: round; "
                  stroke="rgb(100,100,100)"/>
            <text x="245.706" fill="rgb(0,0,0)" y="575.000"
                  style="font-family: sans-serif; font-weight: normal; font-style: normal; font-size: 11px"
                  transform="matrix(1.000,0.000,0.000,1.000,0.000,0.000)"
                  text-anchor="middle">
                -0.4
            </text>
            <line transform="matrix(1.000,0.000,0.000,1.000,0.000,0.000)"
                  x1="288.000" x2="288.000" y1="53.000" y2="560.000"
                  style="stroke-width: 1; stroke-linecap: round; stroke-linejoin: round; "
                  stroke="rgb(230,230,230)"/>
            <line transform="matrix(1.000,0.000,0.000,1.000,0.000,0.000)"
                  x1="287.547" x2="287.547" y1="560.000" y2="562.000"
                  style="stroke-width: 0.5; stroke-linecap: round; stroke-linejoin: round; "
                  stroke="rgb(100,100,100)"/>
            <text x="287.547" fill="rgb(0,0,0)" y="575.000"
                  style="font-family: sans-serif; font-weight: normal; font-style: normal; font-size: 11px"
                  transform="matrix(1.000,0.000,0.000,1.000,0.000,0.000)"
                  text-anchor="middle">
                -0.2
            </text>
            <line transform="matrix(1.000,0.000,0.000,1.000,0.000,0.000)"
                  x1="329.000" x2="329.000" y1="53.000" y2="560.000"
                  style="stroke-width: 1; stroke-linecap: round; stroke-linejoin: round; "
                  stroke="rgb(230,230,230)"/>
            <line transform="matrix(1.000,0.000,0.000,1.000,0.000,0.000)"
                  x1="329.388" x2="329.388" y1="560.000" y2="562.000"
                  style="stroke-width: 0.5; stroke-linecap: round; stroke-linejoin: round; "
                  stroke="rgb(100,100,100)"/>
            <text x="329.388" fill="rgb(0,0,0)" y="575.000"
                  style="font-family: sans-serif; font-weight: normal; font-style: normal; font-size: 11px"
                  transform="matrix(1.000,0.000,0.000,1.000,0.000,0.000)"
                  text-anchor="middle">
                0.0
            </text>
            <line transform="matrix(1.000,0.000,0.000,1.000,0.000,0.000)"
                  x1="371.000" x2="371.000" y1="53.000" y2="560.000"
                  style="stroke-width: 1; stroke-linecap: round; stroke-linejoin: round; "
                  stroke="rgb(230,230,230)"/>
            <line transform="matrix(1.000,0.000,0.000,1.000,0.000,0.000)"
                  x1="371.229" x2="371.229" y1="560.000" y2="562.000"
                  style="stroke-width: 0.5; stroke-linecap: round; stroke-linejoin: round; "
                  stroke="rgb(100,100,100)"/>
            <text x="371.229" fill="rgb(0,0,0)" y="575.000"
                  style="font-family: sans-serif; font-weight: normal; font-style: normal; font-size: 11px"
                  transform="matrix(1.000,0.000,0.000,1.000,0.000,0.000)"
                  text-anchor="middle">
                0.2
            </text>
            <line transform="matrix(1.000,0.000,0.000,1.000,0.000,0.000)"
                  x1="413.000" x2="413.000" y1="53.000" y2="560.000"
                  style="stroke-width: 1; stroke-linecap: round; stroke-linejoin: round; "
                  stroke="rgb(230,230,230)"/>
            <line transform="matrix(1.000,0.000,0.000,1.000,0.000,0.000)"
                  x1="413.070" x2="413.070" y1="560.000" y2="562.000"
                  style="stroke-width: 0.5; stroke-linecap: round; stroke-linejoin: round; "
                  stroke="rgb(100,100,100)"/>
            <text x="413.070" fill="rgb(0,0,0)" y="575.000"
                  style="font-family: sans-serif; font-weight: normal; font-style: normal; font-size: 11px"
                  transform="matrix(1.000,0.000,0.000,1.000,0.000,0.000)"
                  text-anchor="middle">
                0.4
            </text>
            <line transform="matrix(1.000,0.000,0.000,1.000,0.000,0.000)"
                  x1="455.000" x2="455.000" y1="53.000" y2="560.000"
                  style="stroke-width: 1; stroke-linecap: round; stroke-linejoin: round; "
                  stroke="rgb(230,230,230)"/>
            <line transform="matrix(1.000,0.000,0.000,1.000,0.000,0.000)"
                  x1="454.911" x2="454.911" y1="560.000" y2="562.000"
                  style="stroke-width: 0.5; stroke-linecap: round; stroke-linejoin: round; "
                  stroke="rgb(100,100,100)"/>
            <text x="454.911" fill="rgb(0,0,0)" y="575.000"
                  style="font-family: sans-serif; font-weight: normal; font-style: normal; font-size: 11px"
                  transform="matrix(1.000,0.000,0.000,1.000,0.000,0.000)"
                  text-anchor="middle">
                0.6
            </text>
            <line transform="matrix(1.000,0.000,0.000,1.000,0.000,0.000)"
                  x1="497.000" x2="497.000" y1="53.000" y2="560.000"
                  style="stroke-width: 1; stroke-linecap: round; stroke-linejoin: round; "
                  stroke="rgb(230,230,230)"/>
            <line transform="matrix(1.000,0.000,0.000,1.000,0.000,0.000)"
                  x1="496.752" x2="496.752" y1="560.000" y2="562.000"
                  style="stroke-width: 0.5; stroke-linecap: round; stroke-linejoin: round; "
                  stroke="rgb(100,100,100)"/>
            <text x="496.752" fill="rgb(0,0,0)" y="575.000"
                  style="font-family: sans-serif; font-weight: normal; font-style: normal; font-size: 11px"
                  transform="matrix(1.000,0.000,0.000,1.000,0.000,0.000)"
                  text-anchor="middle">
                0.8
            </text>
            <line transform="matrix(1.000,0.000,0.000,1.000,0.000,0.000)"
                  x1="539.000" x2="539.000" y1="53.000" y2="560.000"
                  style="stroke-width: 1; stroke-linecap: round; stroke-linejoin: round; "
                  stroke="rgb(230,230,230)"/>
            <line transform="matrix(1.000,0.000,0.000,1.000,0.000,0.000)"
                  x1="538.593" x2="538.593" y1="560.000" y2="562.000"
                  style="stroke-width: 0.5; stroke-linecap: round; stroke-linejoin: round; "
                  stroke="rgb(100,100,100)"/>
            <text x="538.593" fill="rgb(0,0,0)" y="575.000"
                  style="font-family: sans-serif; font-weight: normal; font-style: normal; font-size: 11px"
                  transform="matrix(1.000,0.000,0.000,1.000,0.000,0.000)"
                  text-anchor="middle">
                1.0
            </text>
            <line transform="matrix(1.000,0.000,0.000,1.000,0.000,0.000)"
                  x1="580.000" x2="580.000" y1="53.000" y2="560.000"
                  style="stroke-width: 1; stroke-linecap: round; stroke-linejoin: round; "
                  stroke="rgb(230,230,230)"/>
            <line transform="matrix(1.000,0.000,0.000,1.000,0.000,0.000)"
                  x1="580.434" x2="580.434" y1="560.000" y2="562.000"
                  style="stroke-width: 0.5; stroke-linecap: round; stroke-linejoin: round; "
                  stroke="rgb(100,100,100)"/>
            <text x="580.434" fill="rgb(0,0,0)" y="575.000"
                  style="font-family: sans-serif; font-weight: normal; font-style: normal; font-size: 11px"
                  transform="matrix(1.000,0.000,0.000,1.000,0.000,0.000)"
                  text-anchor="middle">
                1.2
            </text>
            <line transform="matrix(1.000,0.000,0.000,1.000,0.000,0.000)"
                  x1="622.000" x2="622.000" y1="53.000" y2="560.000"
                  style="stroke-width: 1; stroke-linecap: round; stroke-linejoin: round; "
                  stroke="rgb(230,230,230)"/>
            <line transform="matrix(1.000,0.000,0.000,1.000,0.000,0.000)"
                  x1="622.275" x2="622.275" y1="560.000" y2="562.000"
                  style="stroke-width: 0.5; stroke-linecap: round; stroke-linejoin: round; "
                  stroke="rgb(100,100,100)"/>
            <text x="622.275" fill="rgb(0,0,0)" y="575.000"
                  style="font-family: sans-serif; font-weight: normal; font-style: normal; font-size: 11px"
                  transform="matrix(1.000,0.000,0.000,1.000,0.000,0.000)"
                  text-anchor="middle">
                1.4
            </text>
            <line transform="matrix(1.000,0.000,0.000,1.000,0.000,0.000)"
                  x1="664.000" x2="664.000" y1="53.000" y2="560.000"
                  style="stroke-width: 1; stroke-linecap: round; stroke-linejoin: round; "
                  stroke="rgb(230,230,230)"/>
            <line transform="matrix(1.000,0.000,0.000,1.000,0.000,0.000)"
                  x1="664.116" x2="664.116" y1="560.000" y2="562.000"
                  style="stroke-width: 0.5; stroke-linecap: round; stroke-linejoin: round; "
                  stroke="rgb(100,100,100)"/>
            <text x="664.116" fill="rgb(0,0,0)" y="575.000"
                  style="font-family: sans-serif; font-weight: normal; font-style: normal; font-size: 11px"
                  transform="matrix(1.000,0.000,0.000,1.000,0.000,0.000)"
                  text-anchor="middle">
                1.6
            </text>
            <line transform="matrix(1.000,0.000,0.000,1.000,0.000,0.000)"
                  x1="706.000" x2="706.000" y1="53.000" y2="560.000"
                  style="stroke-width: 1; stroke-linecap: round; stroke-linejoin: round; "
                  stroke="rgb(230,230,230)"/>
            <line transform="matrix(1.000,0.000,0.000,1.000,0.000,0.000)"
                  x1="705.957" x2="705.957" y1="560.000" y2="562.000"
                  style="stroke-width: 0.5; stroke-linecap: round; stroke-linejoin: round; "
                  stroke="rgb(100,100,100)"/>
            <text x="705.957" fill="rgb(0,0,0)" y="575.000"
                  style="font-family: sans-serif; font-weight: normal; font-style: normal; font-size: 11px"
                  transform="matrix(1.000,0.000,0.000,1.000,0.000,0.000)"
                  text-anchor="middle">
                1.8
            </text>
            <line transform="matrix(1.000,0.000,0.000,1.000,0.000,0.000)"
                  x1="748.000" x2="748.000" y1="53.000" y2="560.000"
                  style="stroke-width: 1; stroke-linecap: round; stroke-linejoin: round; "
                  stroke="rgb(230,230,230)"/>
            <line transform="matrix(1.000,0.000,0.000,1.000,0.000,0.000)"
                  x1="747.798" x2="747.798" y1="560.000" y2="562.000"
                  style="stroke-width: 0.5; stroke-linecap: round; stroke-linejoin: round; "
                  stroke="rgb(100,100,100)"/>
            <text x="747.798" fill="rgb(0,0,0)" y="575.000"
                  style="font-family: sans-serif; font-weight: normal; font-style: normal; font-size: 11px"
                  transform="matrix(1.000,0.000,0.000,1.000,0.000,0.000)"
                  text-anchor="middle">
                2.0
            </text>
            <line transform="matrix(1.000,0.000,0.000,1.000,0.000,0.000)"
                  x1="790.000" x2="790.000" y1="53.000" y2="560.000"
                  style="stroke-width: 1; stroke-linecap: round; stroke-linejoin: round; "
                  stroke="rgb(230,230,230)"/>
            <line transform="matrix(1.000,0.000,0.000,1.000,0.000,0.000)"
                  x1="789.639" x2="789.639" y1="560.000" y2="562.000"
                  style="stroke-width: 0.5; stroke-linecap: round; stroke-linejoin: round; "
                  stroke="rgb(100,100,100)"/>
            <text x="789.639" fill="rgb(0,0,0)" y="575.000"
                  style="font-family: sans-serif; font-weight: normal; font-style: normal; font-size: 11px"
                  transform="matrix(1.000,0.000,0.000,1.000,0.000,0.000)"
                  text-anchor="middle">
                2.2
            </text>
            <line transform="matrix(1.000,0.000,0.000,1.000,0.000,0.000)"
                  x1="43.297" x2="796.000" y1="560.000" y2="560.000"
                  style="stroke-width: 0.5; stroke-linecap: round; stroke-linejoin: round; "
                  stroke="rgb(100,100,100)"/>
            <text x="419.648" fill="rgb(0,0,0)" y="591.000"
                  style="font-family: sans-serif; font-weight: bold; font-style: normal; font-size: 12px"
                  transform="matrix(1.000,0.000,0.000,1.000,0.000,0.000)"
                  text-anchor="middle">
                Alocohol consumption (ln)
            </text>
            <line transform="matrix(1.000,0.000,0.000,1.000,0.000,0.000)"
                  x1="43.297" x2="796.000" y1="537.000" y2="537.000"
                  style="stroke-width: 1; stroke-linecap: round; stroke-linejoin: round; "
                  stroke="rgb(230,230,230)"/>
            <line transform="matrix(1.000,0.000,0.000,1.000,0.000,0.000)"
                  x1="41.297" x2="43.297" y1="536.955" y2="536.955"
                  style="stroke-width: 0.5; stroke-linecap: round; stroke-linejoin: round; "
                  stroke="rgb(100,100,100)"/>
            <text x="39.297" fill="rgb(0,0,0)" y="542.455"
                  style="font-family: sans-serif; font-weight: normal; font-style: normal; font-size: 11px"
                  transform="matrix(1.000,0.000,0.000,1.000,0.000,0.000)"
                  text-anchor="end">
                0.0
            </text>
            <line transform="matrix(1.000,0.000,0.000,1.000,0.000,0.000)"
                  x1="43.297" x2="796.000" y1="511.000" y2="511.000"
                  style="stroke-width: 1; stroke-linecap: round; stroke-linejoin: round; "
                  stroke="rgb(230,230,230)"/>
            <line transform="matrix(1.000,0.000,0.000,1.000,0.000,0.000)"
                  x1="41.297" x2="43.297" y1="511.486" y2="511.486"
                  style="stroke-width: 0.5; stroke-linecap: round; stroke-linejoin: round; "
                  stroke="rgb(100,100,100)"/>
            <text x="39.297" fill="rgb(0,0,0)" y="516.986"
                  style="font-family: sans-serif; font-weight: normal; font-style: normal; font-size: 11px"
                  transform="matrix(1.000,0.000,0.000,1.000,0.000,0.000)"
                  text-anchor="end">
                0.5
            </text>
            <line transform="matrix(1.000,0.000,0.000,1.000,0.000,0.000)"
                  x1="43.297" x2="796.000" y1="486.000" y2="486.000"
                  style="stroke-width: 1; stroke-linecap: round; stroke-linejoin: round; "
                  stroke="rgb(230,230,230)"/>
            <line transform="matrix(1.000,0.000,0.000,1.000,0.000,0.000)"
                  x1="41.297" x2="43.297" y1="486.017" y2="486.017"
                  style="stroke-width: 0.5; stroke-linecap: round; stroke-linejoin: round; "
                  stroke="rgb(100,100,100)"/>
            <text x="39.297" fill="rgb(0,0,0)" y="491.517"
                  style="font-family: sans-serif; font-weight: normal; font-style: normal; font-size: 11px"
                  transform="matrix(1.000,0.000,0.000,1.000,0.000,0.000)"
                  text-anchor="end">
                1.0
            </text>
            <line transform="matrix(1.000,0.000,0.000,1.000,0.000,0.000)"
                  x1="43.297" x2="796.000" y1="461.000" y2="461.000"
                  style="stroke-width: 1; stroke-linecap: round; stroke-linejoin: round; "
                  stroke="rgb(230,230,230)"/>
            <line transform="matrix(1.000,0.000,0.000,1.000,0.000,0.000)"
                  x1="41.297" x2="43.297" y1="460.548" y2="460.548"
                  style="stroke-width: 0.5; stroke-linecap: round; stroke-linejoin: round; "
                  stroke="rgb(100,100,100)"/>
            <text x="39.297" fill="rgb(0,0,0)" y="466.048"
                  style="font-family: sans-serif; font-weight: normal; font-style: normal; font-size: 11px"
                  transform="matrix(1.000,0.000,0.000,1.000,0.000,0.000)"
                  text-anchor="end">
                1.5
            </text>
            <line transform="matrix(1.000,0.000,0.000,1.000,0.000,0.000)"
                  x1="43.297" x2="796.000" y1="435.000" y2="435.000"
                  style="stroke-width: 1; stroke-linecap: round; stroke-linejoin: round; "
                  stroke="rgb(230,230,230)"/>
            <line transform="matrix(1.000,0.000,0.000,1.000,0.000,0.000)"
                  x1="41.297" x2="43.297" y1="435.080" y2="435.080"
                  style="stroke-width: 0.5; stroke-linecap: round; stroke-linejoin: round; "
                  stroke="rgb(100,100,100)"/>
            <text x="39.297" fill="rgb(0,0,0)" y="440.580"
                  style="font-family: sans-serif; font-weight: normal; font-style: normal; font-size: 11px"
                  transform="matrix(1.000,0.000,0.000,1.000,0.000,0.000)"
                  text-anchor="end">
                2.0
            </text>
            <line transform="matrix(1.000,0.000,0.000,1.000,0.000,0.000)"
                  x1="43.297" x2="796.000" y1="410.000" y2="410.000"
                  style="stroke-width: 1; stroke-linecap: round; stroke-linejoin: round; "
                  stroke="rgb(230,230,230)"/>
            <line transform="matrix(1.000,0.000,0.000,1.000,0.000,0.000)"
                  x1="41.297" x2="43.297" y1="409.611" y2="409.611"
                  style="stroke-width: 0.5; stroke-linecap: round; stroke-linejoin: round; "
                  stroke="rgb(100,100,100)"/>
            <text x="39.297" fill="rgb(0,0,0)" y="415.111"
                  style="font-family: sans-serif; font-weight: normal; font-style: normal; font-size: 11px"
                  transform="matrix(1.000,0.000,0.000,1.000,0.000,0.000)"
                  text-anchor="end">
                2.5
            </text>
            <line transform="matrix(1.000,0.000,0.000,1.000,0.000,0.000)"
                  x1="43.297" x2="796.000" y1="384.000" y2="384.000"
                  style="stroke-width: 1; stroke-linecap: round; stroke-linejoin: round; "
                  stroke="rgb(230,230,230)"/>
            <line transform="matrix(1.000,0.000,0.000,1.000,0.000,0.000)"
                  x1="41.297" x2="43.297" y1="384.142" y2="384.142"
                  style="stroke-width: 0.5; stroke-linecap: round; stroke-linejoin: round; "
                  stroke="rgb(100,100,100)"/>
            <text x="39.297" fill="rgb(0,0,0)" y="389.642"
                  style="font-family: sans-serif; font-weight: normal; font-style: normal; font-size: 11px"
                  transform="matrix(1.000,0.000,0.000,1.000,0.000,0.000)"
                  text-anchor="end">
                3.0
            </text>
            <line transform="matrix(1.000,0.000,0.000,1.000,0.000,0.000)"
                  x1="43.297" x2="796.000" y1="359.000" y2="359.000"
                  style="stroke-width: 1; stroke-linecap: round; stroke-linejoin: round; "
                  stroke="rgb(230,230,230)"/>
            <line transform="matrix(1.000,0.000,0.000,1.000,0.000,0.000)"
                  x1="41.297" x2="43.297" y1="358.673" y2="358.673"
                  style="stroke-width: 0.5; stroke-linecap: round; stroke-linejoin: round; "
                  stroke="rgb(100,100,100)"/>
            <text x="39.297" fill="rgb(0,0,0)" y="364.173"
                  style="font-family: sans-serif; font-weight: normal; font-style: normal; font-size: 11px"
                  transform="matrix(1.000,0.000,0.000,1.000,0.000,0.000)"
                  text-anchor="end">
                3.5
            </text>
            <line transform="matrix(1.000,0.000,0.000,1.000,0.000,0.000)"
                  x1="43.297" x2="796.000" y1="333.000" y2="333.000"
                  style="stroke-width: 1; stroke-linecap: round; stroke-linejoin: round; "
                  stroke="rgb(230,230,230)"/>
            <line transform="matrix(1.000,0.000,0.000,1.000,0.000,0.000)"
                  x1="41.297" x2="43.297" y1="333.205" y2="333.205"
                  style="stroke-width: 0.5; stroke-linecap: round; stroke-linejoin: round; "
                  stroke="rgb(100,100,100)"/>
            <text x="39.297" fill="rgb(0,0,0)" y="338.705"
                  style="font-family: sans-serif; font-weight: normal; font-style: normal; font-size: 11px"
                  transform="matrix(1.000,0.000,0.000,1.000,0.000,0.000)"
                  text-anchor="end">
                4.0
            </text>
            <line transform="matrix(1.000,0.000,0.000,1.000,0.000,0.000)"
                  x1="43.297" x2="796.000" y1="308.000" y2="308.000"
                  style="stroke-width: 1; stroke-linecap: round; stroke-linejoin: round; "
                  stroke="rgb(230,230,230)"/>
            <line transform="matrix(1.000,0.000,0.000,1.000,0.000,0.000)"
                  x1="41.297" x2="43.297" y1="307.736" y2="307.736"
                  style="stroke-width: 0.5; stroke-linecap: round; stroke-linejoin: round; "
                  stroke="rgb(100,100,100)"/>
            <text x="39.297" fill="rgb(0,0,0)" y="313.236"
                  style="font-family: sans-serif; font-weight: normal; font-style: normal; font-size: 11px"
                  transform="matrix(1.000,0.000,0.000,1.000,0.000,0.000)"
                  text-anchor="end">
                4.5
            </text>
            <line transform="matrix(1.000,0.000,0.000,1.000,0.000,0.000)"
                  x1="43.297" x2="796.000" y1="282.000" y2="282.000"
                  style="stroke-width: 1; stroke-linecap: round; stroke-linejoin: round; "
                  stroke="rgb(230,230,230)"/>
            <line transform="matrix(1.000,0.000,0.000,1.000,0.000,0.000)"
                  x1="41.297" x2="43.297" y1="282.267" y2="282.267"
                  style="stroke-width: 0.5; stroke-linecap: round; stroke-linejoin: round; "
                  stroke="rgb(100,100,100)"/>
            <text x="39.297" fill="rgb(0,0,0)" y="287.767"
                  style="font-family: sans-serif; font-weight: normal; font-style: normal; font-size: 11px"
                  transform="matrix(1.000,0.000,0.000,1.000,0.000,0.000)"
                  text-anchor="end">
                5.0
            </text>
            <line transform="matrix(1.000,0.000,0.000,1.000,0.000,0.000)"
                  x1="43.297" x2="796.000" y1="257.000" y2="257.000"
                  style="stroke-width: 1; stroke-linecap: round; stroke-linejoin: round; "
                  stroke="rgb(230,230,230)"/>
            <line transform="matrix(1.000,0.000,0.000,1.000,0.000,0.000)"
                  x1="41.297" x2="43.297" y1="256.798" y2="256.798"
                  style="stroke-width: 0.5; stroke-linecap: round; stroke-linejoin: round; "
                  stroke="rgb(100,100,100)"/>
            <text x="39.297" fill="rgb(0,0,0)" y="262.298"
                  style="font-family: sans-serif; font-weight: normal; font-style: normal; font-size: 11px"
                  transform="matrix(1.000,0.000,0.000,1.000,0.000,0.000)"
                  text-anchor="end">
                5.5
            </text>
            <line transform="matrix(1.000,0.000,0.000,1.000,0.000,0.000)"
                  x1="43.297" x2="796.000" y1="231.000" y2="231.000"
                  style="stroke-width: 1; stroke-linecap: round; stroke-linejoin: round; "
                  stroke="rgb(230,230,230)"/>
            <line transform="matrix(1.000,0.000,0.000,1.000,0.000,0.000)"
                  x1="41.297" x2="43.297" y1="231.330" y2="231.330"
                  style="stroke-width: 0.5; stroke-linecap: round; stroke-linejoin: round; "
                  stroke="rgb(100,100,100)"/>
            <text x="39.297" fill="rgb(0,0,0)" y="236.830"
                  style="font-family: sans-serif; font-weight: normal; font-style: normal; font-size: 11px"
                  transform="matrix(1.000,0.000,0.000,1.000,0.000,0.000)"
                  text-anchor="end">
                6.0
            </text>
            <line transform="matrix(1.000,0.000,0.000,1.000,0.000,0.000)"
                  x1="43.297" x2="796.000" y1="206.000" y2="206.000"
                  style="stroke-width: 1; stroke-linecap: round; stroke-linejoin: round; "
                  stroke="rgb(230,230,230)"/>
            <line transform="matrix(1.000,0.000,0.000,1.000,0.000,0.000)"
                  x1="41.297" x2="43.297" y1="205.861" y2="205.861"
                  style="stroke-width: 0.5; stroke-linecap: round; stroke-linejoin: round; "
                  stroke="rgb(100,100,100)"/>
            <text x="39.297" fill="rgb(0,0,0)" y="211.361"
                  style="font-family: sans-serif; font-weight: normal; font-style: normal; font-size: 11px"
                  transform="matrix(1.000,0.000,0.000,1.000,0.000,0.000)"
                  text-anchor="end">
                6.5
            </text>
            <line transform="matrix(1.000,0.000,0.000,1.000,0.000,0.000)"
                  x1="43.297" x2="796.000" y1="180.000" y2="180.000"
                  style="stroke-width: 1; stroke-linecap: round; stroke-linejoin: round; "
                  stroke="rgb(230,230,230)"/>
            <line transform="matrix(1.000,0.000,0.000,1.000,0.000,0.000)"
                  x1="41.297" x2="43.297" y1="180.392" y2="180.392"
                  style="stroke-width: 0.5; stroke-linecap: round; stroke-linejoin: round; "
                  stroke="rgb(100,100,100)"/>
            <text x="39.297" fill="rgb(0,0,0)" y="185.892"
                  style="font-family: sans-serif; font-weight: normal; font-style: normal; font-size: 11px"
                  transform="matrix(1.000,0.000,0.000,1.000,0.000,0.000)"
                  text-anchor="end">
                7.0
            </text>
            <line transform="matrix(1.000,0.000,0.000,1.000,0.000,0.000)"
                  x1="43.297" x2="796.000" y1="155.000" y2="155.000"
                  style="stroke-width: 1; stroke-linecap: round; stroke-linejoin: round; "
                  stroke="rgb(230,230,230)"/>
            <line transform="matrix(1.000,0.000,0.000,1.000,0.000,0.000)"
                  x1="41.297" x2="43.297" y1="154.924" y2="154.924"
                  style="stroke-width: 0.5; stroke-linecap: round; stroke-linejoin: round; "
                  stroke="rgb(100,100,100)"/>
            <text x="39.297" fill="rgb(0,0,0)" y="160.424"
                  style="font-family: sans-serif; font-weight: normal; font-style: normal; font-size: 11px"
                  transform="matrix(1.000,0.000,0.000,1.000,0.000,0.000)"
                  text-anchor="end">
                7.5
            </text>
            <line transform="matrix(1.000,0.000,0.000,1.000,0.000,0.000)"
                  x1="43.297" x2="796.000" y1="129.000" y2="129.000"
                  style="stroke-width: 1; stroke-linecap: round; stroke-linejoin: round; "
                  stroke="rgb(230,230,230)"/>
            <line transform="matrix(1.000,0.000,0.000,1.000,0.000,0.000)"
                  x1="41.297" x2="43.297" y1="129.455" y2="129.455"
                  style="stroke-width: 0.5; stroke-linecap: round; stroke-linejoin: round; "
                  stroke="rgb(100,100,100)"/>
            <text x="39.297" fill="rgb(0,0,0)" y="134.955"
                  style="font-family: sans-serif; font-weight: normal; font-style: normal; font-size: 11px"
                  transform="matrix(1.000,0.000,0.000,1.000,0.000,0.000)"
                  text-anchor="end">
                8.0
            </text>
            <line transform="matrix(1.000,0.000,0.000,1.000,0.000,0.000)"
                  x1="43.297" x2="796.000" y1="104.000" y2="104.000"
                  style="stroke-width: 1; stroke-linecap: round; stroke-linejoin: round; "
                  stroke="rgb(230,230,230)"/>
            <line transform="matrix(1.000,0.000,0.000,1.000,0.000,0.000)"
                  x1="41.297" x2="43.297" y1="103.986" y2="103.986"
                  style="stroke-width: 0.5; stroke-linecap: round; stroke-linejoin: round; "
                  stroke="rgb(100,100,100)"/>
            <text x="39.297" fill="rgb(0,0,0)" y="109.486"
                  style="font-family: sans-serif; font-weight: normal; font-style: normal; font-size: 11px"
                  transform="matrix(1.000,0.000,0.000,1.000,0.000,0.000)"
                  text-anchor="end">
                8.5
            </text>
            <line transform="matrix(1.000,0.000,0.000,1.000,0.000,0.000)"
                  x1="43.297" x2="796.000" y1="79.000" y2="79.000"
                  style="stroke-width: 1; stroke-linecap: round; stroke-linejoin: round; "
                  stroke="rgb(230,230,230)"/>
            <line transform="matrix(1.000,0.000,0.000,1.000,0.000,0.000)"
                  x1="41.297" x2="43.297" y1="78.517" y2="78.517"
                  style="stroke-width: 0.5; stroke-linecap: round; stroke-linejoin: round; "
                  stroke="rgb(100,100,100)"/>
            <text x="39.297" fill="rgb(0,0,0)" y="84.017"
                  style="font-family: sans-serif; font-weight: normal; font-style: normal; font-size: 11px"
                  transform="matrix(1.000,0.000,0.000,1.000,0.000,0.000)"
                  text-anchor="end">
                9.0
            </text>
            <line transform="matrix(1.000,0.000,0.000,1.000,0.000,0.000)"
                  x1="43.297" x2="796.000" y1="53.000" y2="53.000"
                  style="stroke-width: 1; stroke-linecap: round; stroke-linejoin: round; "
                  stroke="rgb(230,230,230)"/>
            <line transform="matrix(1.000,0.000,0.000,1.000,0.000,0.000)"
                  x1="41.297" x2="43.297" y1="53.049" y2="53.049"
                  style="stroke-width: 0.5; stroke-linecap: round; stroke-linejoin: round; "
                  stroke="rgb(100,100,100)"/>
            <text x="39.297" fill="rgb(0,0,0)" y="58.549"
                  style="font-family: sans-serif; font-weight: normal; font-style: normal; font-size: 11px"
                  transform="matrix(1.000,0.000,0.000,1.000,0.000,0.000)"
                  text-anchor="end">
                9.5
            </text>
            <line transform="matrix(1.000,0.000,0.000,1.000,0.000,0.000)"
                  x1="43.297" x2="43.297" y1="53.000" y2="560.000"
                  style="stroke-width: 0.5; stroke-linecap: round; stroke-linejoin: round; "
                  stroke="rgb(100,100,100)"/>
            <text x="0.000" fill="rgb(0,0,0)" y="0.000"
                  style="font-family: sans-serif; font-weight: bold; font-style: normal; font-size: 12px"
                  transform="matrix(0.000,-1.000,1.000,0.000,20.000,306.500)"
                  text-anchor="middle">
                Total of suicide (ln)
            </text>
            <g class="dataArea" clip-path="url(#clip-1)">
                <rect fill="rgb(0, 0, 0)" x="43.296875" width="752.703125"
                      y="53" height="507" fill-opacity="0"/>
                <circle fill="rgb(64,64,64)" r="3" stroke-width="0.2"
                        cx="544.7895968614192" cy="355.85410455884926"
                        stroke="rgb(0,0,0)"/>
                <circle fill="rgb(64,64,64)" r="3" stroke-width="0.2"
                        cx="608.677003514242" cy="214.08258963805758"
                        stroke="rgb(0,0,0)"/>
                <circle fill="rgb(64,64,64)" r="3" stroke-width="0.2"
                        cx="427.71510510425145" cy="386.9722685873601"
                        stroke="rgb(0,0,0)"/>
                <circle fill="rgb(64,64,64)" r="3" stroke-width="0.2"
                        cx="693.5023827841104" cy="215.26617663398878"
                        stroke="rgb(0,0,0)"/>
                <circle fill="rgb(64,64,64)" r="3" stroke-width="0.2"
                        cx="682.1912429138565" cy="247.44736249263372"
                        stroke="rgb(0,0,0)"/>
                <circle fill="rgb(64,64,64)" r="3" stroke-width="0.2"
                        cx="399.77965320640965" cy="466.34021581142866"
                        stroke="rgb(0,0,0)"/>
                <circle fill="rgb(64,64,64)" r="3" stroke-width="0.2"
                        cx="77.51065340909089" cy="466.34021581142866"
                        stroke="rgb(0,0,0)"/>
                <circle fill="rgb(64,64,64)" r="3" stroke-width="0.2"
                        cx="761.786221590909" cy="233.05411539339195"
                        stroke="rgb(0,0,0)"/>
                <circle fill="rgb(64,64,64)" r="3" stroke-width="0.2"
                        cx="666.0905985604231" cy="214.35329428721468"
                        stroke="rgb(0,0,0)"/>
                <circle fill="rgb(64,64,64)" r="3" stroke-width="0.2"
                        cx="559.2232592747009" cy="147.95770164233033"
                        stroke="rgb(0,0,0)"/>
                <circle fill="rgb(64,64,64)" r="3" stroke-width="0.2"
                        cx="657.5504280291294" cy="264.58640748833966"
                        stroke="rgb(0,0,0)"/>
                <circle fill="rgb(64,64,64)" r="3" stroke-width="0.2"
                        cx="624.5736448026651" cy="186.64247215597106"
                        stroke="rgb(0,0,0)"/>
                <circle fill="rgb(64,64,64)" r="3" stroke-width="0.2"
                        cx="614.1112084354904" cy="233.97668214166822"
                        stroke="rgb(0,0,0)"/>
                <circle fill="rgb(64,64,64)" r="3" stroke-width="0.2"
                        cx="427.71510510425145" cy="232.147961125297"
                        stroke="rgb(0,0,0)"/>
                <circle fill="rgb(64,64,64)" r="3" stroke-width="0.2"
                        cx="399.77965320640965" cy="345.36852139486535"
                        stroke="rgb(0,0,0)"/>
                <circle fill="rgb(64,64,64)" r="3" stroke-width="0.2"
                        cx="644.0486385445693" cy="269.15102427624385"
                        stroke="rgb(0,0,0)"/>
                <circle fill="rgb(64,64,64)" r="3" stroke-width="0.2"
                        cx="427.71510510425145" cy="241.71801840667132"
                        stroke="rgb(0,0,0)"/>
                <circle fill="rgb(64,64,64)" r="3" stroke-width="0.2"
                        cx="657.5504280291294" cy="431.0330509898703"
                        stroke="rgb(0,0,0)"/>
                <circle fill="rgb(64,64,64)" r="3" stroke-width="0.2"
                        cx="707.6912176368688" cy="254.29863999664315"
                        stroke="rgb(0,0,0)"/>
                <circle fill="rgb(64,64,64)" r="3" stroke-width="0.2"
                        cx="653.1459468927318" cy="279.0787547581314"
                        stroke="rgb(0,0,0)"/>
                <circle fill="rgb(64,64,64)" r="3" stroke-width="0.2"
                        cx="484.605032476278" cy="254.89673851122097"
                        stroke="rgb(0,0,0)"/>
                <circle fill="rgb(64,64,64)" r="3" stroke-width="0.2"
                        cx="329.3879363498228" cy="304.99157063736493"
                        stroke="rgb(0,0,0)"/>
                <circle fill="rgb(64,64,64)" r="3" stroke-width="0.2"
                        cx="686.0299767917663" cy="346.5671054383348"
                        stroke="rgb(0,0,0)"/>
                <circle fill="rgb(64,64,64)" r="3" stroke-width="0.2"
                        cx="686.0299767917663" cy="258.64076808121524"
                        stroke="rgb(0,0,0)"/>
                <circle fill="rgb(64,64,64)" r="3" stroke-width="0.2"
                        cx="682.1912429138565" cy="133.7853234120202"
                        stroke="rgb(0,0,0)"/>
                <circle fill="rgb(64,64,64)" r="3" stroke-width="0.2"
                        cx="579.1626375060441" cy="395.7258861683119"
                        stroke="rgb(0,0,0)"/>
                <circle fill="rgb(64,64,64)" r="3" stroke-width="0.2"
                        cx="693.5023827841104" cy="137.22926544759991"
                        stroke="rgb(0,0,0)"/>
                <circle fill="rgb(64,64,64)" r="3" stroke-width="0.2"
                        cx="634.5376768207288" cy="347.7945737874242"
                        stroke="rgb(0,0,0)"/>
                <circle fill="rgb(64,64,64)" r="3" stroke-width="0.2"
                        cx="666.0905985604231" cy="215.82186365329716"
                        stroke="rgb(0,0,0)"/>
                <circle fill="rgb(64,64,64)" r="3" stroke-width="0.2"
                        cx="559.2232592747009" cy="419.6666826829919"
                        stroke="rgb(0,0,0)"/>
                <circle fill="rgb(64,64,64)" r="3" stroke-width="0.2"
                        cx="689.7995405164289" cy="302.37881991143826"
                        stroke="rgb(0,0,0)"/>
                <circle fill="rgb(64,64,64)" r="3" stroke-width="0.2"
                        cx="349.32731458116615" cy="310.06135657330697"
                        stroke="rgb(0,0,0)"/>
                <circle fill="rgb(64,64,64)" r="3" stroke-width="0.2"
                        cx="544.7895968614192" cy="192.71429859277197"
                        stroke="rgb(0,0,0)"/>
                <circle fill="rgb(64,64,64)" r="3" stroke-width="0.2"
                        cx="529.2858291656221" cy="76.04545454545456"
                        stroke="rgb(0,0,0)"/>
                <circle fill="rgb(64,64,64)" r="3" stroke-width="0.2"
                        cx="566.0830583092702" cy="207.42729119591894"
                        stroke="rgb(0,0,0)"/>
                <circle fill="rgb(64,64,64)" r="3" stroke-width="0.2"
                        cx="572.7250487592611" cy="299.89357230989805"
                        stroke="rgb(0,0,0)"/>
                <circle fill="rgb(64,64,64)" r="3" stroke-width="0.2"
                        cx="670.2334097107482" cy="326.7287549438012"
                        stroke="rgb(0,0,0)"/>
                <circle fill="rgb(64,64,64)" r="3" stroke-width="0.2"
                        cx="739.4498137761445" cy="269.9532057619907"
                        stroke="rgb(0,0,0)"/>
                <circle fill="rgb(64,64,64)" r="3" stroke-width="0.2"
                        cx="711.0930019642798" cy="414.81182310640787"
                        stroke="rgb(0,0,0)"/>
                <circle fill="rgb(64,64,64)" r="3" stroke-width="0.2"
                        cx="529.2858291656221" cy="501.64738063298705"
                        stroke="rgb(0,0,0)"/>
                <circle fill="rgb(64,64,64)" r="3" stroke-width="0.2"
                        cx="349.32731458116615" cy="379.5046582848495"
                        stroke="rgb(0,0,0)"/>
                <circle fill="rgb(64,64,64)" r="3" stroke-width="0.2"
                        cx="494.3372582361757" cy="190.4577554135359"
                        stroke="rgb(0,0,0)"/>
                <circle fill="rgb(64,64,64)" r="3" stroke-width="0.2"
                        cx="644.0486385445693" cy="222.79684938260448"
                        stroke="rgb(0,0,0)"/>
                <circle fill="rgb(64,64,64)" r="3" stroke-width="0.2"
                        cx="670.2334097107482" cy="282.0661726279821"
                        stroke="rgb(0,0,0)"/>
                <circle fill="rgb(64,64,64)" r="3" stroke-width="0.2"
                        cx="619.407823659842" cy="277.18024414430744"
                        stroke="rgb(0,0,0)"/>
                <circle fill="rgb(64,64,64)" r="3" stroke-width="0.2"
                        cx="529.2858291656221" cy="381.8742702598932"
                        stroke="rgb(0,0,0)"/>
                <circle fill="rgb(64,64,64)" r="3" stroke-width="0.2"
                        cx="529.2858291656221" cy="325.913738010942"
                        stroke="rgb(0,0,0)"/>
                <circle fill="rgb(64,64,64)" r="3" stroke-width="0.2"
                        cx="494.3372582361757" cy="221.74001745702748"
                        stroke="rgb(0,0,0)"/>
                <circle fill="rgb(64,64,64)" r="3" stroke-width="0.2"
                        cx="648.646738506995" cy="193.97207784522283"
                        stroke="rgb(0,0,0)"/>
                <circle fill="rgb(64,64,64)" r="3" stroke-width="0.2"
                        cx="700.7170676147075" cy="252.7372159305117"
                        stroke="rgb(0,0,0)"/>
                <circle fill="rgb(64,64,64)" r="3" stroke-width="0.2"
                        cx="137.6952177942322" cy="536.9545454545455"
                        stroke="rgb(0,0,0)"/>
                <circle fill="rgb(64,64,64)" r="3" stroke-width="0.2"
                        cx="717.7349924142708" cy="224.42438309019718"
                        stroke="rgb(0,0,0)"/>
                <circle fill="rgb(64,64,64)" r="3" stroke-width="0.2"
                        cx="745.261441001799" cy="95.59404994666164"
                        stroke="rgb(0,0,0)"/>
                <circle fill="rgb(64,64,64)" r="3" stroke-width="0.2"
                        cx="648.646738506995" cy="245.74360930112647"
                        stroke="rgb(0,0,0)"/>
                <circle fill="rgb(64,64,64)" r="3" stroke-width="0.2"
                        cx="307.3459763339689" cy="302.8907586085054"
                        stroke="rgb(0,0,0)"/>
                <circle fill="rgb(64,64,64)" r="3" stroke-width="0.2"
                        cx="666.0905985604231" cy="306.6260682483926"
                        stroke="rgb(0,0,0)"/>
                <circle fill="rgb(64,64,64)" r="3" stroke-width="0.2"
                        cx="653.1459468927318" cy="315.0348133433872"
                        stroke="rgb(0,0,0)"/>
                <circle fill="rgb(64,64,64)" r="3" stroke-width="0.2"
                        cx="572.7250487592611" cy="305.530596530814"
                        stroke="rgb(0,0,0)"/>
                <circle fill="rgb(64,64,64)" r="3" stroke-width="0.2"
                        cx="639.3472018911854" cy="203.99200287100467"
                        stroke="rgb(0,0,0)"/>
                <circle fill="rgb(64,64,64)" r="3" stroke-width="0.2"
                        cx="484.605032476278" cy="346.5671054383348"
                        stroke="rgb(0,0,0)"/>
                <circle fill="rgb(64,64,64)" r="3" stroke-width="0.2"
                        cx="619.407823659842" cy="245.91144296728396"
                        stroke="rgb(0,0,0)"/>
                <circle fill="rgb(64,64,64)" r="3" stroke-width="0.2"
                        cx="670.2334097107482" cy="249.5700642818627"
                        stroke="rgb(0,0,0)"/>
                <circle fill="rgb(64,64,64)" r="3" stroke-width="0.2"
                        cx="512.5404843741198" cy="193.48925459427335"
                        stroke="rgb(0,0,0)"/>
                <circle fill="rgb(64,64,64)" r="3" stroke-width="0.2"
                        cx="137.6952177942322" cy="234.9162668876972"
                        stroke="rgb(0,0,0)"/>
                <circle fill="rgb(64,64,64)" r="3" stroke-width="0.2"
                        cx="717.7349924142708" cy="161.8231410991434"
                        stroke="rgb(0,0,0)"/>
                <circle fill="rgb(64,64,64)" r="3" stroke-width="0.2"
                        cx="184.37799269481317" cy="379.5046582848495"
                        stroke="rgb(0,0,0)"/>
                <circle fill="rgb(64,64,64)" r="3" stroke-width="0.2"
                        cx="682.1912429138565" cy="187.01139492868316"
                        stroke="rgb(0,0,0)"/>
                <circle fill="rgb(64,64,64)" r="3" stroke-width="0.2"
                        cx="608.677003514242" cy="290.60657318938354"
                        stroke="rgb(0,0,0)"/>
                <circle fill="rgb(64,64,64)" r="3" stroke-width="0.2"
                        cx="307.3459763339689" cy="225.42646402909418"
                        stroke="rgb(0,0,0)"/>
            </g>
            <rect fill="rgb(255,255,255)" x="0" width="429.578125" y="0"
                  height="31" fill-opacity="0.001"/>
            <text x="2"
                  style="font-family: sans-serif; font-weight: normal; font-style: normal; font-size: 24px"
                  y="24.14">
                Total of suicide per alcohol consumption
            </text>
            <rect fill="rgb(255,255,255)" x="0" width="429.578125" y="31"
                  height="18" fill-opacity="0.001"/>
            <text x="2"
                  style="font-family: sans-serif; font-weight: normal; font-style: normal; font-size: 12px"
                  y="44.48">
                Female
            </text>
        </g>
    </g>
    <g visibility="hidden" id="hiddenGroup"/>
</svg>